<?xml version="1.0" encoding="UTF-8" standalone="no"?>
<svg
   xmlns:osb="http://www.openswatchbook.org/uri/2009/osb"
   xmlns:dc="http://purl.org/dc/elements/1.1/"
   xmlns:cc="http://creativecommons.org/ns#"
   xmlns:rdf="http://www.w3.org/1999/02/22-rdf-syntax-ns#"
   xmlns:svg="http://www.w3.org/2000/svg"
   xmlns="http://www.w3.org/2000/svg"
   version="1.1"
   id="svg4136"
   viewBox="0 0 485.88725 88.739694"
   height="88.739693"
   width="485.88724">
  <title
     id="title4178">Booksquisher Logo</title>
  <defs
     id="defs4138">
    <linearGradient
       osb:paint="solid"
       id="linearGradient5669">
      <stop
         id="stop5671"
         offset="0"
         style="stop-color:#000000;stop-opacity:1;" />
    </linearGradient>
  </defs>
  <metadata
     id="metadata4141">
    <rdf:RDF>
      <cc:Work
         rdf:about="">
        <dc:format>image/svg+xml</dc:format>
        <dc:type
           rdf:resource="http://purl.org/dc/dcmitype/StillImage" />
        <dc:title>Booksquisher Logo</dc:title>
        <dc:rights>
          <cc:Agent>
            <dc:title>Attribution 4.0 International (CC BY 4.0)</dc:title>
          </cc:Agent>
        </dc:rights>
        <dc:creator>
          <cc:Agent>
            <dc:title>Michael S. Marmor</dc:title>
          </cc:Agent>
        </dc:creator>
        <cc:license
           rdf:resource="http://creativecommons.org/licenses/by/3.0/" />
      </cc:Work>
      <cc:License
         rdf:about="http://creativecommons.org/licenses/by/3.0/">
        <cc:permits
           rdf:resource="http://creativecommons.org/ns#Reproduction" />
        <cc:permits
           rdf:resource="http://creativecommons.org/ns#Distribution" />
        <cc:requires
           rdf:resource="http://creativecommons.org/ns#Notice" />
        <cc:requires
           rdf:resource="http://creativecommons.org/ns#Attribution" />
        <cc:permits
           rdf:resource="http://creativecommons.org/ns#DerivativeWorks" />
      </cc:License>
    </rdf:RDF>
  </metadata>
  <g
     transform="translate(-9.5339012,-737.27797)"
     id="layer1">
    <g
       id="g3564">
      <g
         id="g4685"
         transform="matrix(0.17331937,0,0,0.17331937,-9.6634719,737.27797)">
        <g
           id="g4687">
          <path
             d="m 392.704,460.8 c -3.712,0 -6.869,2.372 -8.047,5.683 -0.597,1.698 -2.167,2.85 -3.968,2.85 l -51.985,0 c -2.355,0 -4.267,-1.911 -4.267,-4.267 l 0,-76.8 c 0,-2.355 -1.911,-4.267 -4.267,-4.267 l -42.667,0 c -2.355,0 -4.267,1.911 -4.267,4.267 l 0,76.8 c 0,2.355 -1.911,4.267 -4.267,4.267 l -69.052,0 c -1.801,0 -3.362,-1.152 -3.968,-2.85 -1.178,-3.311 -4.335,-5.683 -8.047,-5.683 -4.71,0 -8.533,3.823 -8.533,8.533 l 0,17.067 c 0,4.71 3.823,8.533 8.533,8.533 3.712,0 6.869,-2.372 8.047,-5.683 0.597,-1.698 2.167,-2.85 3.968,-2.85 l 69.052,0 c 2.355,0 4.267,1.911 4.267,4.267 l 0,17.067 c 0,2.355 1.911,4.267 4.267,4.267 l 42.667,0 c 2.355,0 4.267,-1.911 4.267,-4.267 l 0,-17.067 c 0,-2.355 1.911,-4.267 4.267,-4.267 l 51.985,0 c 1.801,0 3.362,1.152 3.968,2.85 1.178,3.311 4.335,5.683 8.047,5.683 4.71,0 8.533,-3.823 8.533,-8.533 l 0,-17.067 c 0,-4.71 -3.823,-8.533 -8.533,-8.533 z"
             id="path4689" />
        </g>
      </g>
      <g
         id="g4703"
         transform="matrix(0.17331937,0,0,0.17331937,-9.6634719,737.27797)">
        <g
           id="g4705">
          <path
             d="m 341.504,290.133 -128,0 0,-213.333 119.467,0 c 4.71,0 8.533,-3.823 8.533,-8.533 C 341.504,22.963 295.569,0 204.971,0 c -61.85,0 -94.208,96.188 -94.208,191.206 0,45.841 7.672,88.073 21.598,118.912 16.785,37.171 41.89,56.815 72.61,56.815 l 136.533,0 c 4.71,0 8.533,-3.823 8.533,-8.533 l 0,-59.733 c 0,-4.711 -3.823,-8.534 -8.533,-8.534 z"
             id="path4707" />
        </g>
      </g>
      <g
         id="g4709"
         transform="matrix(0.17331937,0,0,0.17331937,-9.6634719,737.27797)" />
      <g
         id="g4711"
         transform="matrix(0.17331937,0,0,0.17331937,-9.6634719,737.27797)" />
      <g
         id="g4713"
         transform="matrix(0.17331937,0,0,0.17331937,-9.6634719,737.27797)" />
      <g
         id="g4715"
         transform="matrix(0.17331937,0,0,0.17331937,-9.6634719,737.27797)" />
      <g
         id="g4717"
         transform="matrix(0.17331937,0,0,0.17331937,-9.6634719,737.27797)" />
      <g
         id="g4719"
         transform="matrix(0.17331937,0,0,0.17331937,-9.6634719,737.27797)" />
      <g
         id="g4721"
         transform="matrix(0.17331937,0,0,0.17331937,-9.6634719,737.27797)" />
      <g
         id="g4723"
         transform="matrix(0.17331937,0,0,0.17331937,-9.6634719,737.27797)" />
      <g
         id="g4725"
         transform="matrix(0.17331937,0,0,0.17331937,-9.6634719,737.27797)" />
      <g
         id="g4727"
         transform="matrix(0.17331937,0,0,0.17331937,-9.6634719,737.27797)" />
      <g
         id="g4729"
         transform="matrix(0.17331937,0,0,0.17331937,-9.6634719,737.27797)" />
      <g
         id="g4731"
         transform="matrix(0.17331937,0,0,0.17331937,-9.6634719,737.27797)" />
      <g
         id="g4733"
         transform="matrix(0.17331937,0,0,0.17331937,-9.6634719,737.27797)" />
      <g
         id="g4735"
         transform="matrix(0.17331937,0,0,0.17331937,-9.6634719,737.27797)" />
      <g
         id="g4737"
         transform="matrix(0.17331937,0,0,0.17331937,-9.6634719,737.27797)" />
      <g
         id="flowRoot4906"
         style="font-style:normal;font-variant:normal;font-weight:normal;font-stretch:normal;font-size:65.69583893px;line-height:125%;font-family:'Sitka Heading';-inkscape-font-specification:'Sitka Heading';letter-spacing:0px;word-spacing:0px;fill:#000000;fill-opacity:1;stroke:none;stroke-width:1px;stroke-linecap:butt;stroke-linejoin:miter;stroke-opacity:1">
        <path
           id="path3394"
           style="font-style:normal;font-variant:normal;font-weight:normal;font-stretch:normal;font-size:76.64514923px;font-family:'Sitka Heading';-inkscape-font-specification:'Sitka Heading';fill:#000000;fill-opacity:1"
           d="m 70.362801,787.49456 4.700903,-1.19226 q 0.613161,-0.17032 1.021935,-0.64722 0.442838,-0.51097 0.442838,-1.26039 l 0,-37.57316 q 0,-0.74942 -0.442838,-1.22632 -0.408774,-0.4769 -1.021935,-0.64723 l -4.700903,-1.22632 0,-1.94167 18.020126,0 q 5.21187,0 8.550192,0.88567 3.372391,0.88568 5.280001,2.38452 1.90761,1.46477 2.62297,3.37238 0.74942,1.87355 0.74942,3.91742 0,2.24826 -0.71536,4.15587 -0.71535,1.90762 -2.04387,3.40646 -1.32852,1.49883 -3.236129,2.5889 -1.907612,1.056 -4.223999,1.66916 l 0,0.0681 q 2.827354,0.13626 5.245938,0.98787 2.45264,0.85161 4.224,2.31639 1.80541,1.46477 2.82735,3.5427 1.056,2.07794 1.056,4.63278 0,2.72516 -0.78348,4.83716 -0.74942,2.07793 -2.112,3.61084 -1.36258,1.49884 -3.23613,2.52077 -1.83949,1.02194 -3.98555,1.66916 -2.111999,0.61316 -4.46245,0.88568 -2.350452,0.23845 -4.734967,0.23845 l -19.042062,0 0,-1.97574 z m 15.976256,-24.01548 q 3.440515,0 5.790966,-0.5791 2.384516,-0.61316 3.84929,-1.70322 1.464774,-1.12413 2.077935,-2.6911 0.647226,-1.60103 0.647226,-3.61084 0,-2.65703 -0.68129,-4.53058 -0.68129,-1.90761 -2.077935,-3.09987 -1.396645,-1.22632 -3.508645,-1.80542 -2.077935,-0.57909 -4.939354,-0.57909 l -4.428386,0 0,18.59922 3.270193,0 z m 4.121805,22.85729 q 5.552516,0 8.311741,-2.18013 2.759227,-2.2142 2.759227,-7.15355 0,-2.92955 -0.74942,-4.93935 -0.71536,-2.00981 -2.282323,-3.23613 -1.566968,-1.26039 -4.019612,-1.80542 -2.418581,-0.5791 -5.825032,-0.5791 l -5.586579,0 0,19.89368 7.391998,0 z" />
        <path
           id="path3396"
           style="font-style:normal;font-variant:normal;font-weight:normal;font-stretch:normal;font-size:76.64514923px;font-family:'Sitka Heading';-inkscape-font-specification:'Sitka Heading';fill:#000000;fill-opacity:1"
           d="m 130.79298,790.35598 q -3.71303,0 -6.74478,-1.26039 -3.03174,-1.26039 -5.1778,-3.61084 -2.14607,-2.35045 -3.33832,-5.68877 -1.1582,-3.37239 -1.1582,-7.49419 0,-3.81523 1.1582,-7.11949 1.15819,-3.33832 3.30425,-5.79096 2.18013,-2.48671 5.28,-3.88336 3.09987,-1.43071 7.01729,-1.43071 4.224,0 7.28981,1.49884 3.09987,1.49884 5.10967,3.98555 2.00981,2.48671 2.99768,5.79097 1.02194,3.27019 1.02194,6.8129 0,3.78116 -1.1582,7.11948 -1.15819,3.30426 -3.30425,5.79097 -2.14607,2.45264 -5.24594,3.88335 -3.09987,1.39665 -7.05135,1.39665 z m 0.4769,-2.82736 q 2.82735,0 4.66684,-1.39664 1.83948,-1.39665 2.89548,-3.54271 1.09007,-2.18013 1.5329,-4.76903 0.44284,-2.58891 0.44284,-4.97342 0,-2.89548 -0.54503,-5.7569 -0.54503,-2.86142 -1.77135,-5.10968 -1.19226,-2.28232 -3.13394,-3.67897 -1.94168,-1.43071 -4.7009,-1.43071 -1.87355,0 -3.30426,0.64723 -1.39664,0.64723 -2.45264,1.77135 -1.056,1.09007 -1.77136,2.55484 -0.71535,1.43071 -1.15819,3.06581 -0.44284,1.60103 -0.64723,3.30426 -0.17032,1.70322 -0.17032,3.27019 0,1.73729 0.20439,3.61084 0.20438,1.87355 0.68129,3.6449 0.4769,1.77135 1.22632,3.37239 0.78348,1.60103 1.90761,2.82735 1.12413,1.19226 2.62297,1.90761 1.5329,0.68129 3.47458,0.68129 z" />
        <path
           id="path3398"
           style="font-style:normal;font-variant:normal;font-weight:normal;font-stretch:normal;font-size:76.64514923px;font-family:'Sitka Heading';-inkscape-font-specification:'Sitka Heading';fill:#000000;fill-opacity:1"
           d="m 168.81615,790.35598 q -3.71303,0 -6.74477,-1.26039 -3.03174,-1.26039 -5.17781,-3.61084 -2.14606,-2.35045 -3.33832,-5.68877 -1.15819,-3.37239 -1.15819,-7.49419 0,-3.81523 1.15819,-7.11949 1.15819,-3.33832 3.30426,-5.79096 2.18013,-2.48671 5.28,-3.88336 3.09987,-1.43071 7.01729,-1.43071 4.224,0 7.2898,1.49884 3.09987,1.49884 5.10968,3.98555 2.0098,2.48671 2.99768,5.79097 1.02193,3.27019 1.02193,6.8129 0,3.78116 -1.15819,7.11948 -1.1582,3.30426 -3.30426,5.79097 -2.14606,2.45264 -5.24594,3.88335 -3.09987,1.39665 -7.05135,1.39665 z m 0.4769,-2.82736 q 2.82736,0 4.66684,-1.39664 1.83949,-1.39665 2.89549,-3.54271 1.09006,-2.18013 1.5329,-4.76903 0.44284,-2.58891 0.44284,-4.97342 0,-2.89548 -0.54503,-5.7569 -0.54504,-2.86142 -1.77136,-5.10968 -1.19226,-2.28232 -3.13393,-3.67897 -1.94168,-1.43071 -4.70091,-1.43071 -1.87354,0 -3.30425,0.64723 -1.39665,0.64723 -2.45265,1.77135 -1.056,1.09007 -1.77135,2.55484 -0.71536,1.43071 -1.1582,3.06581 -0.44284,1.60103 -0.64722,3.30426 -0.17033,1.70322 -0.17033,3.27019 0,1.73729 0.20439,3.61084 0.20439,1.87355 0.68129,3.6449 0.47691,1.77135 1.22632,3.37239 0.78349,1.60103 1.90762,2.82735 1.12413,1.19226 2.62296,1.90761 1.53291,0.68129 3.47458,0.68129 z" />
        <path
           id="path3400"
           style="font-style:normal;font-variant:normal;font-weight:normal;font-stretch:normal;font-size:76.64514923px;font-family:'Sitka Heading';-inkscape-font-specification:'Sitka Heading';fill:#000000;fill-opacity:1"
           d="m 189.3983,787.56269 3.88335,-1.056 q 0.64723,-0.17032 1.056,-0.61316 0.40878,-0.47691 0.40878,-1.19226 l 0,-40.16206 q 0,-0.81755 -0.47691,-1.32852 -0.44283,-0.54503 -1.36258,-0.88567 l -3.61083,-1.46478 0,-1.49883 11.58193,-1.83949 0,34.7458 14.03458,-13.79612 -4.12181,-1.53291 0,-1.90761 13.76206,0 0,1.90761 -3.84928,1.12413 q -0.88568,0.23845 -1.53291,0.74942 -0.64722,0.51097 -1.12413,0.98787 l -9.12929,8.41394 12.33136,16.72567 q 0.40877,0.54503 1.02193,0.98787 0.61316,0.44284 1.46478,0.68129 l 2.99767,0.95381 0,1.90761 -14.88619,0 0,-1.90761 3.20207,-1.22632 -10.35561,-13.93239 -3.84929,1.77136 0,10.52593 q 0,0.74942 0.40877,1.19226 0.44284,0.44284 1.056,0.61316 l 3.33832,1.056 0,1.90761 -16.24877,0 0,-1.90761 z" />
        <path
           id="path3402"
           style="font-style:normal;font-variant:normal;font-weight:normal;font-stretch:normal;font-size:76.64514923px;font-family:'Sitka Heading';-inkscape-font-specification:'Sitka Heading';fill:#000000;fill-opacity:1"
           d="m 229.56035,779.18282 2.65704,0 1.19225,3.74709 q 0.27252,0.78349 0.88568,1.32852 0.64723,0.54503 1.26039,0.88568 0.64722,0.34064 1.46477,0.68129 0.81755,0.30658 1.73729,0.61316 0.95381,0.27252 1.94168,0.44284 0.98787,0.13626 1.90761,0.13626 1.32852,0 2.62297,-0.27252 1.29445,-0.30658 2.31639,-0.98787 1.02193,-0.68129 1.63509,-1.77136 0.64723,-1.09006 0.64723,-2.65703 0,-1.32851 -0.47691,-2.24826 -0.44283,-0.91974 -1.26038,-1.56696 -0.78349,-0.64723 -1.90761,-1.056 -1.09007,-0.44284 -2.41858,-0.78349 -1.80542,-0.51096 -3.54271,-0.98787 -1.73729,-0.51096 -3.2702,-0.98787 -1.60103,-0.4769 -2.86142,-1.32851 -1.26038,-0.88568 -2.18012,-2.07794 -0.88568,-1.22632 -1.36259,-2.6911 -0.4769,-1.46477 -0.4769,-3.13393 0,-2.28232 1.056,-4.18994 1.09007,-1.94167 2.92955,-3.30425 1.83948,-1.39665 4.224,-2.14607 2.41858,-0.74942 5.07561,-0.74942 1.49884,0 2.75923,0.1022 1.26038,0.10219 2.41858,0.30658 1.19225,0.20438 2.31638,0.4769 1.12413,0.27252 2.38452,0.5791 l 0.37471,9.02709 -2.72516,0 -1.36258,-3.88335 q -0.23845,-0.64723 -0.78349,-1.15819 -0.54503,-0.51097 -1.15819,-0.85162 -1.19226,-0.57909 -2.62297,-0.9538 -1.43071,-0.37471 -2.96361,-0.37471 -1.29445,0 -2.45264,0.30658 -1.1582,0.27251 -2.07794,0.88567 -0.88568,0.61317 -1.43071,1.60104 -0.51097,0.9538 -0.51097,2.31638 0,1.36258 0.40878,2.35045 0.40877,0.98788 1.15819,1.66917 0.74942,0.68129 1.73729,1.15819 0.98787,0.44284 2.18013,0.81755 0.74942,0.23845 1.56697,0.4769 0.81755,0.23845 1.60103,0.4769 0.78348,0.23846 1.49884,0.44284 0.71535,0.20439 1.26038,0.37471 1.90762,0.54503 3.44052,1.32852 1.5329,0.74942 2.62297,1.80542 1.09006,1.056 1.66916,2.45264 0.61316,1.39665 0.61316,3.27019 0,2.82736 -1.19226,4.93936 -1.15819,2.112 -3.09987,3.54271 -1.94168,1.39664 -4.49651,2.07793 -2.55484,0.71536 -5.34813,0.71536 -1.80542,0 -3.40645,-0.20439 -1.56697,-0.20439 -2.99768,-0.54503 -1.39665,-0.34065 -2.6911,-0.74942 -1.26038,-0.40877 -2.48671,-0.81755 l 0,-8.85677 z" />
        <path
           id="path3404"
           style="font-style:normal;font-variant:normal;font-weight:normal;font-stretch:normal;font-size:76.64514923px;font-family:'Sitka Heading';-inkscape-font-specification:'Sitka Heading';fill:#000000;fill-opacity:1"
           d="m 278.18599,803.91365 5.04155,-1.09006 q 0.64723,-0.13626 1.056,-0.61316 0.40878,-0.44284 0.40878,-1.19226 l 0,-14.85213 0,-1.80542 q -1.43071,2.112 -3.03175,3.2702 -1.56696,1.12413 -3.03174,1.66916 -1.46477,0.51097 -2.79329,0.61316 -1.29445,0.10219 -2.21419,0.10219 -3.168,0 -5.68877,-1.22632 -2.52078,-1.22632 -4.29213,-3.44052 -1.73729,-2.21419 -2.6911,-5.24593 -0.91974,-3.06581 -0.91974,-6.67664 0,-3.98555 1.15819,-7.4942 1.19226,-3.54271 3.40645,-6.16567 2.24826,-2.62297 5.45033,-4.15587 3.23612,-1.53291 7.2898,-1.53291 3.37239,0 6.74477,0.68129 3.40646,0.64723 6.74478,2.35046 l 0,43.94321 q 0,0.71536 0.40877,1.1582 0.44284,0.4769 1.09007,0.64722 l 3.98554,1.056 0,1.90762 -18.12232,0 0,-1.90762 z m 6.50633,-44.01134 q -0.64723,-0.5791 -1.60104,-1.056 -0.91974,-0.51097 -1.94167,-0.85162 -1.02194,-0.34064 -2.00981,-0.51097 -0.95381,-0.20438 -1.66916,-0.20438 -2.72516,0 -4.8031,1.15819 -2.04387,1.12413 -3.40645,3.03174 -1.36258,1.87355 -2.04387,4.36026 -0.68129,2.48671 -0.68129,5.24593 0,3.13394 0.5791,5.82504 0.61316,2.69109 1.90761,4.66683 1.29445,1.94168 3.27019,3.06581 2.00981,1.09006 4.76904,1.09006 0.78348,0 1.80541,-0.13625 1.056,-0.17033 2.112,-0.54504 1.09007,-0.40877 2.07794,-1.056 0.98787,-0.68129 1.6351,-1.66916 l 0,-22.41444 z" />
        <path
           id="path3406"
           style="font-style:normal;font-variant:normal;font-weight:normal;font-stretch:normal;font-size:76.64514923px;font-family:'Sitka Heading';-inkscape-font-specification:'Sitka Heading';fill:#000000;fill-opacity:1"
           d="m 303.09965,761.60553 q 0,-0.81755 -0.44284,-1.32852 -0.44284,-0.54503 -1.39664,-0.91974 l -3.47458,-1.32851 0,-1.49884 11.47974,-2.18013 0,21.39251 q 0,2.31639 0.23845,4.18994 0.23845,1.83948 1.02193,3.168 0.78349,1.29445 2.24826,1.97574 1.46477,0.68129 3.88335,0.68129 1.056,0 2.2142,-0.17032 1.15819,-0.17033 2.24825,-0.5791 1.12413,-0.40877 2.112,-1.056 1.02194,-0.68129 1.77136,-1.66916 l 0,-20.67716 q 0,-0.81755 -0.44284,-1.26039 -0.44284,-0.44283 -1.39664,-0.78348 l -3.50865,-1.32852 0,-1.5329 11.51381,-2.35045 0,28.47793 q 0,0.85161 0.40877,1.36258 0.44284,0.51097 1.43071,0.85161 l 3.47458,1.26039 0,1.49884 -10.66219,2.35045 -0.47691,0 0,-5.92722 -0.17032,0 q -1.39664,1.94167 -2.75922,3.09987 -1.36258,1.15819 -2.75923,1.80542 -1.39664,0.61316 -2.82735,0.81754 -1.39665,0.20439 -2.82736,0.20439 -2.28232,0 -4.29213,-0.68129 -2.0098,-0.68129 -3.47458,-2.112 -1.43071,-1.43071 -2.28232,-3.67897 -0.85161,-2.28232 -0.85161,-5.48438 l 0,-16.58942 z" />
        <path
           id="path3408"
           style="font-style:normal;font-variant:normal;font-weight:normal;font-stretch:normal;font-size:76.64514923px;font-family:'Sitka Heading';-inkscape-font-specification:'Sitka Heading';fill:#000000;fill-opacity:1"
           d="m 348.20453,746.92373 q -0.88568,0 -1.70323,-0.30658 -0.78348,-0.34065 -1.39664,-0.88568 -0.5791,-0.54503 -0.95381,-1.32852 -0.34065,-0.78348 -0.34065,-1.73729 0,-0.91974 0.34065,-1.70322 0.37471,-0.78349 0.95381,-1.32852 0.61316,-0.5791 1.39664,-0.88568 0.81755,-0.34064 1.70323,-0.34064 0.98787,0 1.80541,0.30658 0.85162,0.30658 1.46478,0.85161 0.61316,0.54503 0.9538,1.32852 0.34065,0.74942 0.34065,1.66916 0,0.98787 -0.37471,1.77135 -0.34064,0.78349 -0.95381,1.36258 -0.61316,0.5791 -1.46477,0.91975 -0.81755,0.30658 -1.77135,0.30658 z m -8.448,40.63896 4.36025,-1.056 q 0.64723,-0.17032 1.056,-0.61316 0.44284,-0.47691 0.44284,-1.19226 l 0,-22.95948 q 0,-0.85161 -0.4769,-1.36258 -0.44284,-0.54503 -1.39665,-0.88568 l -3.84928,-1.32851 0,-1.53291 11.85444,-2.14606 0,30.21522 q 0,0.74942 0.40878,1.22632 0.44284,0.44284 1.056,0.5791 l 4.15587,1.056 0,1.90761 -17.61135,0 0,-1.90761 z" />
        <path
           id="path3410"
           style="font-style:normal;font-variant:normal;font-weight:normal;font-stretch:normal;font-size:76.64514923px;font-family:'Sitka Heading';-inkscape-font-specification:'Sitka Heading';fill:#000000;fill-opacity:1"
           d="m 361.893,779.18282 2.65703,0 1.19226,3.74709 q 0.27251,0.78349 0.88567,1.32852 0.64723,0.54503 1.26039,0.88568 0.64723,0.34064 1.46477,0.68129 0.81755,0.30658 1.73729,0.61316 0.95381,0.27252 1.94168,0.44284 0.98787,0.13626 1.90761,0.13626 1.32852,0 2.62297,-0.27252 1.29445,-0.30658 2.31639,-0.98787 1.02193,-0.68129 1.63509,-1.77136 0.64723,-1.09006 0.64723,-2.65703 0,-1.32851 -0.4769,-2.24826 -0.44284,-0.91974 -1.26039,-1.56696 -0.78348,-0.64723 -1.90761,-1.056 -1.09007,-0.44284 -2.41858,-0.78349 -1.80542,-0.51096 -3.54271,-0.98787 -1.73729,-0.51096 -3.2702,-0.98787 -1.60103,-0.4769 -2.86141,-1.32851 -1.26039,-0.88568 -2.18013,-2.07794 -0.88568,-1.22632 -1.36258,-2.6911 -0.47691,-1.46477 -0.47691,-3.13393 0,-2.28232 1.056,-4.18994 1.09007,-1.94167 2.92955,-3.30425 1.83948,-1.39665 4.224,-2.14607 2.41858,-0.74942 5.07561,-0.74942 1.49884,0 2.75923,0.1022 1.26038,0.10219 2.41858,0.30658 1.19226,0.20438 2.31638,0.4769 1.12413,0.27252 2.38452,0.5791 l 0.37471,9.02709 -2.72516,0 -1.36258,-3.88335 q -0.23845,-0.64723 -0.78348,-1.15819 -0.54504,-0.51097 -1.1582,-0.85162 -1.19226,-0.57909 -2.62297,-0.9538 -1.4307,-0.37471 -2.96361,-0.37471 -1.29445,0 -2.45264,0.30658 -1.1582,0.27251 -2.07794,0.88567 -0.88568,0.61317 -1.43071,1.60104 -0.51096,0.9538 -0.51096,2.31638 0,1.36258 0.40877,2.35045 0.40877,0.98788 1.15819,1.66917 0.74942,0.68129 1.73729,1.15819 0.98787,0.44284 2.18013,0.81755 0.74942,0.23845 1.56697,0.4769 0.81755,0.23845 1.60103,0.4769 0.78348,0.23846 1.49884,0.44284 0.71535,0.20439 1.26039,0.37471 1.90761,0.54503 3.44051,1.32852 1.5329,0.74942 2.62297,1.80542 1.09006,1.056 1.66916,2.45264 0.61316,1.39665 0.61316,3.27019 0,2.82736 -1.19226,4.93936 -1.15819,2.112 -3.09987,3.54271 -1.94167,1.39664 -4.49651,2.07793 -2.55484,0.71536 -5.34813,0.71536 -1.80542,0 -3.40645,-0.20439 -1.56697,-0.20439 -2.99768,-0.54503 -1.39664,-0.34065 -2.69109,-0.74942 -1.26039,-0.40877 -2.48671,-0.81755 l 0,-8.85677 z" />
        <path
           id="path3412"
           style="font-style:normal;font-variant:normal;font-weight:normal;font-stretch:normal;font-size:76.64514923px;font-family:'Sitka Heading';-inkscape-font-specification:'Sitka Heading';fill:#000000;fill-opacity:1"
           d="m 391.37438,787.56269 3.84929,-1.056 q 0.71536,-0.17032 1.09006,-0.61316 0.37471,-0.44284 0.37471,-1.19226 l 0,-40.16206 q 0,-0.81755 -0.44283,-1.32852 -0.44284,-0.54503 -1.39665,-0.88567 l -3.61084,-1.46478 0,-1.49883 11.58194,-1.83949 0,20.6431 0,1.83948 q 1.46477,-1.97574 2.86142,-3.13394 1.4307,-1.15819 2.79329,-1.77135 1.36258,-0.64723 2.69109,-0.81755 1.32852,-0.20439 2.65703,-0.20439 2.28233,0 4.29213,0.68129 2.04387,0.68129 3.54271,2.14607 1.49884,1.43071 2.35045,3.71303 0.88568,2.28232 0.88568,5.45032 l 0,18.46297 q 0,0.85161 0.40877,1.32851 0.44284,0.47691 1.056,0.64723 l 3.44052,1.056 0,1.90761 -16.14658,0 0,-1.90761 3.67897,-1.056 q 0.57909,-0.17032 0.98787,-0.64723 0.44284,-0.4769 0.44284,-1.32851 l 0,-16.01032 q 0,-2.35045 -0.30658,-4.18994 -0.27252,-1.87355 -1.09007,-3.168 -0.81755,-1.32851 -2.31638,-2.0098 -1.49884,-0.71536 -3.91742,-0.71536 -1.056,0 -2.2142,0.20439 -1.12412,0.17032 -2.24825,0.57909 -1.09007,0.40878 -2.07794,1.09007 -0.98787,0.68129 -1.77135,1.66916 l 0,22.72103 q 0,0.74942 0.40877,1.19226 0.40877,0.40877 1.056,0.61316 l 3.23613,1.056 0,1.90761 -16.14658,0 0,-1.90761 z" />
        <path
           id="path3414"
           style="font-style:normal;font-variant:normal;font-weight:normal;font-stretch:normal;font-size:76.64514923px;font-family:'Sitka Heading';-inkscape-font-specification:'Sitka Heading';fill:#000000;fill-opacity:1"
           d="m 463.4171,781.66953 0,2.99767 q -1.12413,1.02194 -2.62297,2.04388 -1.49884,0.98787 -3.27019,1.80541 -1.77136,0.78349 -3.78116,1.26039 -2.00981,0.51097 -4.15587,0.51097 -3.47458,0 -6.40413,-1.15819 -2.92955,-1.1582 -5.07561,-3.44052 -2.112,-2.28232 -3.30426,-5.58658 -1.19226,-3.33832 -1.19226,-7.69858 0,-3.71303 1.12413,-7.05135 1.15819,-3.33833 3.27019,-5.82503 2.112,-2.48671 5.10968,-3.95149 2.99768,-1.49884 6.71071,-1.49884 3.27019,0 5.79096,1.1582 2.55484,1.12413 4.29213,2.99767 1.77136,1.87355 2.65704,4.36026 0.91974,2.45265 0.91974,5.04155 0,0.30658 -0.0341,0.71535 0,0.37471 -0.0341,0.78349 0,0.40877 -0.0681,0.81755 -0.0681,0.37471 -0.10219,0.68129 l -23.19794,0 q 0,7.42606 2.99768,11.34348 3.03174,3.91742 8.82271,3.91742 1.94168,0 3.61084,-0.44284 1.66916,-0.44284 3.03174,-1.056 1.39664,-0.64723 2.45264,-1.36258 1.09007,-0.74942 1.83949,-1.36258 l 0.61316,0 z m -6.47226,-13.79613 q 0,-2.28232 -0.40877,-4.29213 -0.37471,-2.0098 -1.29445,-3.50864 -0.88568,-1.49884 -2.31639,-2.35045 -1.39665,-0.85162 -3.47458,-0.85162 -1.94168,0 -3.50865,0.78349 -1.56696,0.74942 -2.75922,2.18013 -1.19226,1.43071 -1.94168,3.47458 -0.74942,2.0098 -1.02193,4.56464 l 16.72567,0 z" />
        <path
           id="path3416"
           style="font-style:normal;font-variant:normal;font-weight:normal;font-stretch:normal;font-size:76.64514923px;font-family:'Sitka Heading';-inkscape-font-specification:'Sitka Heading';fill:#000000;fill-opacity:1"
           d="m 468.06796,787.56269 3.95149,-1.056 q 0.64722,-0.17032 1.056,-0.61316 0.40877,-0.47691 0.40877,-1.19226 l 0,-22.89135 q 0,-0.88568 -0.51097,-1.46478 -0.4769,-0.61316 -1.39664,-0.91974 l -3.54271,-1.39664 0,-1.49884 11.13909,-2.18013 0,7.66451 0.13626,0 q 1.12413,-1.66916 2.24826,-3.13393 1.15819,-1.46477 2.45264,-2.52077 1.29446,-1.056 2.72516,-1.66917 1.46478,-0.61316 3.168,-0.61316 0.91975,0 1.66917,0.1022 0.74941,0.0681 1.39664,0.23845 0.64723,0.17032 1.22632,0.44284 0.5791,0.23845 1.22632,0.61316 l 0,8.17548 -2.69109,0 -1.056,-2.75922 q -0.13626,-0.37471 -0.5791,-0.64723 -0.40877,-0.30658 -0.9538,-0.51097 -0.54504,-0.20438 -1.1582,-0.30658 -0.61316,-0.10219 -1.15819,-0.10219 -1.32852,0 -2.45265,0.40877 -1.12412,0.37471 -2.14606,1.056 -0.98787,0.64723 -1.90761,1.60103 -0.88568,0.91975 -1.70323,2.00981 l 0,20.30245 q 0,0.74942 0.40878,1.22632 0.40877,0.44284 1.056,0.5791 l 4.73496,1.056 0,1.90761 -17.74761,0 0,-1.90761 z" />
      </g>
      <g
         id="g3533"
         transform="matrix(0.07319422,0,0,0.07319422,28.112691,751.5301)">
        <g
           id="g3469">
          <g
             id="g3471">
            <path
               id="path3473"
               d="m 114.505,124.542 287.911,-0.012 0,-26.997 -287.911,0.023 c -33.898,0 -46.504,-9.038 -46.504,-33.373 0,-31.266 12.413,-33.531 32.848,-33.531 2.189,0 4.338,0.035 6.481,0.076 2.189,0.035 4.338,0.07 6.422,0.07 l 288.688,0 0,-26.997 -288.688,0 c -1.938,0 -3.936,-0.041 -5.979,-0.076 -2.271,-0.035 -4.583,-0.07 -6.913,-0.07 -16.371,0 -59.845,0 -59.845,60.528 10e-4,40.059 24.727,60.359 73.49,60.359 z" />
            <path
               id="rect3475"
               d="m 97.597,40.304001 287.957,0 0,8.968 -287.957,0 z"
               style="" />
            <path
               id="rect3477"
               d="m 97.597,59.050999 287.957,0 0,8.968 -287.957,0 z"
               style="" />
            <path
               id="rect3479"
               d="m 97.597,78.925003 287.957,0 0,8.968 -287.957,0 z"
               style="" />
            <path
               id="path3481"
               d="m 480.245,316.135 -383.594,0 c -2.569,0 -5.237,-0.047 -7.94,-0.082 -3.013,-0.047 -6.083,-0.094 -9.196,-0.094 -21.737,0 -79.515,0 -79.515,80.42 0,53.236 32.859,80.211 97.656,80.211 l 382.589,-0.023 0,-35.873 -382.589,0.023 c -45.045,0 -61.784,-12.016 -61.784,-44.35 0,-41.559 16.488,-44.548 43.643,-44.548 2.908,0 5.774,0.047 8.612,0.094 2.902,0.046 5.751,0.093 8.524,0.093 l 383.593,0 0,-35.871 z" />
            <path
               id="rect3483"
               d="m 75.189003,366.112 382.635987,0 0,8.968 -382.635987,0 z"
               style="" />
            <path
               id="rect3485"
               d="m 75.189003,391.03101 382.635987,0 0,8.968 -382.635987,0 z"
               style="" />
            <path
               id="rect3487"
               d="m 75.189003,417.44501 382.635987,0 0,8.967 -382.635987,0 z"
               style="" />
            <path
               id="path3489"
               d="m 391.813,291.998 c 2.709,0.047 5.442,0.093 8.232,0.093 19.478,0 71.242,0 71.242,-72.053 0,-47.701 -29.438,-71.878 -87.484,-71.878 l -342.787,0.023 0,32.141 342.787,-0.023 c 40.332,0 55.35,10.76 55.35,39.737 0,37.232 -14.771,39.906 -39.107,39.906 -2.604,0 -5.195,-0.023 -7.718,-0.082 -2.616,-0.035 -5.173,-0.082 -7.649,-0.082 l -343.663,0 0,32.136 343.674,0 c 2.289,0 4.672,0.047 7.123,0.082 z" />
            <path
               id="rect3491"
               d="m 61.088001,238.627 342.821989,0 0,8.962 -342.821989,0 z"
               style="" />
            <path
               id="rect3493"
               d="m 61.088001,216.30701 342.821989,0 0,8.968 -342.821989,0 z"
               style="" />
            <path
               id="rect3495"
               d="m 61.088001,192.655 342.821989,0 0,8.968 -342.821989,0 z"
               style="" />
          </g>
        </g>
        <g
           id="g3497" />
        <g
           id="g3499" />
        <g
           id="g3501" />
        <g
           id="g3503" />
        <g
           id="g3505" />
        <g
           id="g3507" />
        <g
           id="g3509" />
        <g
           id="g3511" />
        <g
           id="g3513" />
        <g
           id="g3515" />
        <g
           id="g3517" />
        <g
           id="g3519" />
        <g
           id="g3521" />
        <g
           id="g3523" />
        <g
           id="g3525" />
      </g>
    </g>
  </g>
</svg>
